<mxfile host="Electron" modified="2023-07-25T18:12:17.843Z" agent="Mozilla/5.0 (Windows NT 10.0; Win64; x64) AppleWebKit/537.36 (KHTML, like Gecko) draw.io/21.6.1 Chrome/112.0.5615.204 Electron/24.6.1 Safari/537.36" etag="8XgRK0dLCLMxVN7EescZ" version="21.6.1" type="device">
  <diagram id="UucFHmFJ7zZiVY0_FZmM" name="Seite-1">
    <mxGraphModel dx="1295" dy="768" grid="1" gridSize="10" guides="1" tooltips="1" connect="1" arrows="1" fold="1" page="1" pageScale="1" pageWidth="1169" pageHeight="827" math="0" shadow="0">
      <root>
        <mxCell id="0" />
        <mxCell id="1" parent="0" />
        <mxCell id="791JLaX6_WFQ55FWUATX-5" value="" style="group" parent="1" vertex="1" connectable="0">
          <mxGeometry x="10" y="50" width="1150" height="701" as="geometry" />
        </mxCell>
        <mxCell id="3Stw6r_B2xiS9IpdGpiu-6" value="&lt;div style=&quot;color: rgb(0 , 0 , 0) ; font-family: &amp;quot;helvetica&amp;quot; ; font-style: normal ; font-weight: 400 ; letter-spacing: normal ; text-indent: 0px ; text-transform: none ; word-spacing: 0px ; background-color: rgb(248 , 249 , 250) ; text-align: left&quot;&gt;&lt;div style=&quot;border-color: var(--border-color);&quot;&gt;&lt;font style=&quot;font-size: 16px;&quot;&gt;[Name]&lt;/font&gt;&lt;/div&gt;&lt;span style=&quot;border-color: var(--border-color); text-align: center; font-size: 16px;&quot;&gt;&lt;div style=&quot;border-color: var(--border-color); text-align: left;&quot;&gt;&lt;span style=&quot;border-color: var(--border-color);&quot;&gt;Bibliographic Coupling (Cutoff [x])&lt;/span&gt;&lt;/div&gt;&lt;/span&gt;&lt;span style=&quot;border-color: var(--border-color); text-align: center; font-size: 16px;&quot;&gt;&lt;div style=&quot;border-color: var(--border-color); text-align: left;&quot;&gt;&lt;span style=&quot;border-color: var(--border-color);&quot;&gt;WoS - [Year - Year]&lt;/span&gt;&lt;/div&gt;&lt;/span&gt;&lt;/div&gt;" style="text;whiteSpace=wrap;html=1;" parent="791JLaX6_WFQ55FWUATX-5" vertex="1">
          <mxGeometry x="44.244900750159196" width="275.27910581920975" height="60" as="geometry" />
        </mxCell>
        <mxCell id="791JLaX6_WFQ55FWUATX-4" value="" style="group" parent="791JLaX6_WFQ55FWUATX-5" vertex="1" connectable="0">
          <mxGeometry y="631" width="1150" height="70" as="geometry" />
        </mxCell>
        <mxCell id="BsLgX9qDjLMDOcHObya5-77" value="[Position&#xa;Group&#xa;Department&#xa;University]" style="endArrow=classic;verticalAlign=top;fontSize=14;startArrow=classic;startFill=1;endFill=1;" parent="791JLaX6_WFQ55FWUATX-4" edge="1">
          <mxGeometry x="-37.81155146359581" y="40" width="49.156983182001746" height="50" as="geometry">
            <mxPoint y="70" as="sourcePoint" />
            <mxPoint x="200" y="70" as="targetPoint" />
            <mxPoint x="1" as="offset" />
          </mxGeometry>
        </mxCell>
        <mxCell id="BsLgX9qDjLMDOcHObya5-76" value="[Position&#xa;Group&#xa;Department&#xa;University]" style="endArrow=classic;verticalAlign=top;fontSize=14;startArrow=classic;startFill=1;endFill=1;" parent="791JLaX6_WFQ55FWUATX-4" edge="1">
          <mxGeometry x="451.9515453768208" y="40" width="60.3549629581879" height="50" as="geometry">
            <mxPoint x="511.09940907584496" y="70" as="sourcePoint" />
            <mxPoint x="1094.7197999529003" y="70" as="targetPoint" />
            <mxPoint x="1" as="offset" />
          </mxGeometry>
        </mxCell>
        <mxCell id="BsLgX9qDjLMDOcHObya5-81" value="[Position&#xa;Group&#xa;Department&#xa;University]" style="endArrow=classic;verticalAlign=top;fontSize=14;startArrow=classic;startFill=1;endFill=1;" parent="791JLaX6_WFQ55FWUATX-4" edge="1">
          <mxGeometry x="165.34996827356954" y="40" width="60.3549629581879" height="50" as="geometry">
            <mxPoint x="200" y="70" as="sourcePoint" />
            <mxPoint x="511.45390744767036" y="70" as="targetPoint" />
            <mxPoint x="1" as="offset" />
          </mxGeometry>
        </mxCell>
        <mxCell id="lpe4yE8V4a6jso3uDnat-5" value="" style="group" parent="791JLaX6_WFQ55FWUATX-4" vertex="1" connectable="0">
          <mxGeometry x="-8.233172922963092" width="1096.3432117319064" height="20" as="geometry" />
        </mxCell>
        <mxCell id="791JLaX6_WFQ55FWUATX-3" value="2022" style="shape=partialRectangle;whiteSpace=wrap;bottom=0;right=0;fillColor=none;fontSize=19;fontStyle=1;horizontal=0;spacingTop=2;spacingRight=32;strokeWidth=2;" parent="lpe4yE8V4a6jso3uDnat-5" vertex="1">
          <mxGeometry x="1051.2367639641016" width="45.10644776780481" height="20" as="geometry" />
        </mxCell>
        <mxCell id="BsLgX9qDjLMDOcHObya5-3" value="2021" style="shape=partialRectangle;whiteSpace=wrap;bottom=0;right=0;fillColor=none;fontSize=19;fontStyle=1;horizontal=0;spacingTop=2;spacingRight=32;strokeWidth=2;" parent="lpe4yE8V4a6jso3uDnat-5" vertex="1">
          <mxGeometry x="1007.4287432459622" width="43.81007170172088" height="20" as="geometry" />
        </mxCell>
        <mxCell id="BsLgX9qDjLMDOcHObya5-4" value="2020" style="shape=partialRectangle;whiteSpace=wrap;bottom=0;right=0;fillColor=none;fontSize=19;fontStyle=1;horizontal=0;spacingTop=2;spacingRight=32;strokeWidth=2;" parent="lpe4yE8V4a6jso3uDnat-5" vertex="1">
          <mxGeometry x="963.616509017128" width="43.81007170172088" height="20" as="geometry" />
        </mxCell>
        <mxCell id="BsLgX9qDjLMDOcHObya5-5" value="2019" style="shape=partialRectangle;whiteSpace=wrap;bottom=0;right=0;fillColor=none;fontSize=19;fontStyle=1;horizontal=0;spacingTop=2;spacingRight=32;strokeWidth=2;" parent="lpe4yE8V4a6jso3uDnat-5" vertex="1">
          <mxGeometry x="919.8064373154067" width="43.81007170172088" height="20" as="geometry" />
        </mxCell>
        <mxCell id="BsLgX9qDjLMDOcHObya5-6" value="2018" style="shape=partialRectangle;whiteSpace=wrap;bottom=0;right=0;fillColor=none;fontSize=19;fontStyle=1;horizontal=0;spacingTop=2;spacingRight=32;strokeWidth=2;" parent="lpe4yE8V4a6jso3uDnat-5" vertex="1">
          <mxGeometry x="875.996365613686" width="43.81007170172088" height="20" as="geometry" />
        </mxCell>
        <mxCell id="BsLgX9qDjLMDOcHObya5-7" value="2017" style="shape=partialRectangle;whiteSpace=wrap;bottom=0;right=0;fillColor=none;fontSize=19;fontStyle=1;horizontal=0;spacingTop=2;spacingRight=32;strokeWidth=2;" parent="lpe4yE8V4a6jso3uDnat-5" vertex="1">
          <mxGeometry x="832.1862939119654" width="43.81007170172088" height="20" as="geometry" />
        </mxCell>
        <mxCell id="BsLgX9qDjLMDOcHObya5-8" value="2016" style="shape=partialRectangle;whiteSpace=wrap;bottom=0;right=0;fillColor=none;fontSize=19;fontStyle=1;horizontal=0;spacingTop=2;spacingRight=32;strokeWidth=2;" parent="lpe4yE8V4a6jso3uDnat-5" vertex="1">
          <mxGeometry x="788.3762222102442" width="43.81007170172088" height="20" as="geometry" />
        </mxCell>
        <mxCell id="BsLgX9qDjLMDOcHObya5-9" value="2015" style="shape=partialRectangle;whiteSpace=wrap;bottom=0;right=0;fillColor=none;fontSize=19;fontStyle=1;horizontal=0;spacingTop=2;spacingRight=32;strokeWidth=2;" parent="lpe4yE8V4a6jso3uDnat-5" vertex="1">
          <mxGeometry x="744.5661505085234" width="43.81007170172088" height="20" as="geometry" />
        </mxCell>
        <mxCell id="BsLgX9qDjLMDOcHObya5-10" value="2014" style="shape=partialRectangle;whiteSpace=wrap;bottom=0;right=0;fillColor=none;fontSize=19;fontStyle=1;horizontal=0;spacingTop=2;spacingRight=32;strokeWidth=2;" parent="lpe4yE8V4a6jso3uDnat-5" vertex="1">
          <mxGeometry x="700.7560788068025" width="43.81007170172088" height="20" as="geometry" />
        </mxCell>
        <mxCell id="BsLgX9qDjLMDOcHObya5-11" value="2013" style="shape=partialRectangle;whiteSpace=wrap;bottom=0;right=0;fillColor=none;fontSize=19;fontStyle=1;horizontal=0;spacingTop=2;spacingRight=32;strokeWidth=2;" parent="lpe4yE8V4a6jso3uDnat-5" vertex="1">
          <mxGeometry x="656.9460071050819" width="43.81007170172088" height="20" as="geometry" />
        </mxCell>
        <mxCell id="BsLgX9qDjLMDOcHObya5-12" value="2012" style="shape=partialRectangle;whiteSpace=wrap;bottom=0;right=0;fillColor=none;fontSize=19;fontStyle=1;horizontal=0;spacingTop=2;spacingRight=32;strokeWidth=2;" parent="lpe4yE8V4a6jso3uDnat-5" vertex="1">
          <mxGeometry x="613.3410038240921" width="43.81007170172088" height="20" as="geometry" />
        </mxCell>
        <mxCell id="BsLgX9qDjLMDOcHObya5-13" value="2011" style="shape=partialRectangle;whiteSpace=wrap;bottom=0;right=0;fillColor=none;fontSize=19;fontStyle=1;horizontal=0;spacingTop=2;spacingRight=32;strokeWidth=2;" parent="lpe4yE8V4a6jso3uDnat-5" vertex="1">
          <mxGeometry x="569.5309321223714" width="43.81007170172088" height="20" as="geometry" />
        </mxCell>
        <mxCell id="BsLgX9qDjLMDOcHObya5-14" value="2010" style="shape=partialRectangle;whiteSpace=wrap;bottom=0;right=0;fillColor=none;fontSize=19;fontStyle=1;horizontal=0;spacingTop=2;spacingRight=32;strokeWidth=2;" parent="lpe4yE8V4a6jso3uDnat-5" vertex="1">
          <mxGeometry x="525.7208604206505" width="43.81007170172088" height="20" as="geometry" />
        </mxCell>
        <mxCell id="BsLgX9qDjLMDOcHObya5-15" value="2009" style="shape=partialRectangle;whiteSpace=wrap;bottom=0;right=0;fillColor=none;fontSize=19;fontStyle=1;horizontal=0;spacingTop=2;spacingRight=32;strokeWidth=2;" parent="lpe4yE8V4a6jso3uDnat-5" vertex="1">
          <mxGeometry x="481.9107887189297" width="43.81007170172088" height="20" as="geometry" />
        </mxCell>
        <mxCell id="BsLgX9qDjLMDOcHObya5-16" value="2008" style="shape=partialRectangle;whiteSpace=wrap;bottom=0;right=0;fillColor=none;fontSize=19;fontStyle=1;horizontal=0;spacingTop=2;spacingRight=32;strokeWidth=2;" parent="lpe4yE8V4a6jso3uDnat-5" vertex="1">
          <mxGeometry x="438.1007170172089" width="43.81007170172088" height="20" as="geometry" />
        </mxCell>
        <mxCell id="BsLgX9qDjLMDOcHObya5-17" value="2007" style="shape=partialRectangle;whiteSpace=wrap;bottom=0;right=0;fillColor=none;fontSize=19;fontStyle=1;horizontal=0;spacingTop=2;spacingRight=32;strokeWidth=2;" parent="lpe4yE8V4a6jso3uDnat-5" vertex="1">
          <mxGeometry x="394.29064531548795" width="43.81007170172088" height="20" as="geometry" />
        </mxCell>
        <mxCell id="BsLgX9qDjLMDOcHObya5-18" value="2006" style="shape=partialRectangle;whiteSpace=wrap;bottom=0;right=0;fillColor=none;fontSize=19;fontStyle=1;horizontal=0;spacingTop=2;spacingRight=32;strokeWidth=2;" parent="lpe4yE8V4a6jso3uDnat-5" vertex="1">
          <mxGeometry x="350.480573613767" width="43.81007170172088" height="20" as="geometry" />
        </mxCell>
        <mxCell id="BsLgX9qDjLMDOcHObya5-19" value="2005" style="shape=partialRectangle;whiteSpace=wrap;bottom=0;right=0;fillColor=none;fontSize=19;fontStyle=1;horizontal=0;spacingTop=2;spacingRight=32;strokeWidth=2;" parent="lpe4yE8V4a6jso3uDnat-5" vertex="1">
          <mxGeometry x="306.6705019120462" width="43.81007170172088" height="20" as="geometry" />
        </mxCell>
        <mxCell id="BsLgX9qDjLMDOcHObya5-20" value="2004" style="shape=partialRectangle;whiteSpace=wrap;bottom=0;right=0;fillColor=none;fontSize=19;fontStyle=1;horizontal=0;spacingTop=2;spacingRight=32;strokeWidth=2;" parent="lpe4yE8V4a6jso3uDnat-5" vertex="1">
          <mxGeometry x="262.86043021032526" width="43.81007170172088" height="20" as="geometry" />
        </mxCell>
        <mxCell id="BsLgX9qDjLMDOcHObya5-21" value="2003" style="shape=partialRectangle;whiteSpace=wrap;bottom=0;right=0;fillColor=none;fontSize=19;fontStyle=1;horizontal=0;spacingTop=2;spacingRight=32;strokeWidth=2;" parent="lpe4yE8V4a6jso3uDnat-5" vertex="1">
          <mxGeometry x="219.05035850860443" width="43.81007170172088" height="20" as="geometry" />
        </mxCell>
        <mxCell id="BsLgX9qDjLMDOcHObya5-22" value="2002" style="shape=partialRectangle;whiteSpace=wrap;bottom=0;right=0;fillColor=none;fontSize=19;fontStyle=1;horizontal=0;spacingTop=2;spacingRight=32;strokeWidth=2;" parent="lpe4yE8V4a6jso3uDnat-5" vertex="1">
          <mxGeometry x="175.24028680688346" width="43.81007170172088" height="20" as="geometry" />
        </mxCell>
        <mxCell id="BsLgX9qDjLMDOcHObya5-23" value="2001" style="shape=partialRectangle;whiteSpace=wrap;bottom=0;right=0;fillColor=none;fontSize=19;fontStyle=1;horizontal=0;spacingTop=2;spacingRight=32;strokeWidth=2;" parent="lpe4yE8V4a6jso3uDnat-5" vertex="1">
          <mxGeometry x="131.43021510516252" width="43.81007170172088" height="20" as="geometry" />
        </mxCell>
        <mxCell id="BsLgX9qDjLMDOcHObya5-24" value="2000" style="shape=partialRectangle;whiteSpace=wrap;bottom=0;right=0;fillColor=none;fontSize=19;fontStyle=1;horizontal=0;spacingTop=2;spacingRight=32;strokeWidth=2;" parent="lpe4yE8V4a6jso3uDnat-5" vertex="1">
          <mxGeometry x="87.62014340344155" width="43.81007170172088" height="20" as="geometry" />
        </mxCell>
        <mxCell id="BsLgX9qDjLMDOcHObya5-25" value="1999" style="shape=partialRectangle;whiteSpace=wrap;bottom=0;right=0;fillColor=none;fontSize=19;fontStyle=1;horizontal=0;spacingTop=2;spacingRight=32;strokeWidth=2;" parent="lpe4yE8V4a6jso3uDnat-5" vertex="1">
          <mxGeometry x="43.81007170172082" width="43.81007170172088" height="20" as="geometry" />
        </mxCell>
        <mxCell id="BsLgX9qDjLMDOcHObya5-26" value="1998" style="shape=partialRectangle;whiteSpace=wrap;bottom=0;right=0;fillColor=none;fontSize=19;fontStyle=1;horizontal=0;spacingTop=2;spacingRight=32;strokeWidth=2;" parent="lpe4yE8V4a6jso3uDnat-5" vertex="1">
          <mxGeometry width="43.81007170172088" height="20" as="geometry" />
        </mxCell>
        <mxCell id="lpe4yE8V4a6jso3uDnat-1" value="2023" style="shape=partialRectangle;whiteSpace=wrap;bottom=0;right=0;fillColor=none;fontSize=19;fontStyle=1;horizontal=0;spacingTop=2;spacingRight=32;strokeWidth=2;" parent="791JLaX6_WFQ55FWUATX-4" vertex="1">
          <mxGeometry x="1087.1204300011962" width="45.1064477678048" height="20" as="geometry" />
        </mxCell>
        <mxCell id="lpe4yE8V4a6jso3uDnat-2" style="edgeStyle=orthogonalEdgeStyle;rounded=0;orthogonalLoop=1;jettySize=auto;html=1;exitX=1;exitY=1;exitDx=0;exitDy=0;entryX=1;entryY=0;entryDx=0;entryDy=0;endArrow=none;endFill=0;" parent="791JLaX6_WFQ55FWUATX-4" source="lpe4yE8V4a6jso3uDnat-1" target="lpe4yE8V4a6jso3uDnat-1" edge="1">
          <mxGeometry relative="1" as="geometry" />
        </mxCell>
      </root>
    </mxGraphModel>
  </diagram>
</mxfile>
